# xmcd
#
# Track frame offsets:
#	150
#	20512
#	32775
#	41437
#	50175
#	66075
#	78562
#	88575
#	107812
#	117075
#	123112
#	142837
#	157575
#	172687
#	185925
#	199200
#	211950
#	230700
#	245925
#	262012
#	276712
#
# Disc length: 3876 seconds
#
# Revision: 0
# Processed by: cddbd v1.5.1PL0 Copyright (c) Steve Scherf et al.
# Submitted via: audiograbber 1.83.01
#
DISCID=340f2215
DTITLE=Various Artist - Mountain Journey: Stars of Old Time Music
DYEAR=2004
DGENRE=Country
TTITLE0=Ola Belle Reed - Wayfaring Pilgrim
TTITLE1=Bascom Lamar Lunsford - Free a Little Bird
TTITLE2=Mike Seeger with Etta Baker - Cripple Creek
TTITLE3=George Pegram and Red Parham - Cindy
TTITLE4=Doc Watson and Gaither Carlton - And Am I Born to Die
TTITLE5=Ginny Hawker - Poor Soldier
TTITLE6=JP Frawley - Wild Rose of the Mountain
TTITLE7=Ginny Hawker and Hazel Dickens - Times Are Not What They Used to Be
TTITLE8=Buddy Thomas - Sweet Sunny South
TTITLE9=Sacred Harp Singers of Georgia and Alabama - The Traveller
TTITLE10=Hazel Dickens - Pretty Bird
TTITLE11=Connie and Babe and the Backwoods Boys - Cruel Willie
TTITLE12=Ron Thomason - He's Coming To Us Dead
TTITLE13=Etta Baker - Bully of the Town
TTITLE14=Hazel Dickens and Alice Gerrard - Two Soldiers
TTITLE15=Fuzzy Mountain String Band - Bonaparte's Retreat
TTITLE16=Ginny Hawker - Not a Word of That Be Said
TTITLE17=Blue Sky Boys - If I Could Hear My Mother Pray Again
TTITLE18=Ralph Blizzard and the New Southern Ramblers - Midnight on the Water
TTITLE19=Dirk Powell with Tim O'Brien - My Love Lies in the Ground
TTITLE20=Ola Belle Reed - My Epitaph
EXTD=Rounder Records
EXTT0=
EXTT1=
EXTT2=
EXTT3=
EXTT4=
EXTT5=
EXTT6=
EXTT7=
EXTT8=
EXTT9=
EXTT10=
EXTT11=
EXTT12=
EXTT13=
EXTT14=
EXTT15=
EXTT16=
EXTT17=
EXTT18=
EXTT19=
EXTT20=
PLAYORDER=
